<svg id="Capa_1" data-name="Capa 1" xmlns="http://www.w3.org/2000/svg" viewBox="0 0 336.64 396.59"><defs><style>.cls-1{fill:#b2b2b2;}.cls-2{fill:#d8d8d6;}.cls-3{fill:#036830;}.cls-4{fill:#2f814c;}.cls-5{fill:#ffcf04;}.cls-6{fill:#ffd833;}.cls-7{fill:#fff;}.cls-8{fill:#1d1e1c;}.cls-9{fill:#bbbaba;}</style></defs><title>Vista 1</title><path class="cls-1" d="M681.44,1361.85,676,1477.42q-144.23-6-288.45,1.17-2.77-59-5.56-117.91Q531.71,1354.45,681.44,1361.85Z" transform="translate(-344.8 -1082)"/><path class="cls-2" d="M681.44,1361.85l-141.91,56.36L382,1360.68Q531.71,1354.45,681.44,1361.85Z" transform="translate(-344.8 -1082)"/><path class="cls-3" d="M668.53,1225.8a139.1,139.1,0,0,0-3-20.6c-.24-1.21-.61-2.42-.85-3.64.27-.81.51-1.62.74-2.44a67.35,67.35,0,0,0,2.53-18.65,29.54,29.54,0,0,0-.12-3.27c0-1.09.12-2.18.12-3.27a69,69,0,0,0-2.79-19.51,94.66,94.66,0,0,0,2.17-20.06c0-2.28-.08-4.5-.24-6.64v0c-1.72-23.83-12.11-39-12.11-39a33.93,33.93,0,0,1-3.51-.12c-33.45-.24-61.32,13-70.77,17.94a139,139,0,0,0-50.41-9.45h-.19a137,137,0,0,0-42.09,6.63q-4.16,1.33-8.25,2.94a152.29,152.29,0,0,0-18.37-8.24c-14.07-5.28-33.84-10.49-55.79-9.82a64.78,64.78,0,0,0-6.06,12,92,92,0,0,0-4.85,49.89c.21,1.22.46,2.45.73,3.67a69,69,0,0,0-2.44,12.81q-.16,1.61-.25,3.25c0,.11,0,.22,0,.34v0c0,.42,0,.86,0,1.3q0,1,0,2c0,.52,0,1,0,1.56a.33.33,0,0,0,0,.11c0,.45,0,.91.1,1.36,0,.24,0,.48,0,.73a68.56,68.56,0,0,0,3.16,17.23c-.29,1.15-.57,2.31-.84,3.48l.07.25c.24.9.5,1.78.78,2.67-.24,1.21-.61,2.42-.85,3.51a141.89,141.89,0,0,0-3,20.81l-.07.95c-.06,1.07-.11,2.15-.16,3.21a142,142,0,0,0,3.27,25,139.24,139.24,0,0,0,56,83.13,141.56,141.56,0,0,0,14.25,8.69,140,140,0,0,0,13.61,6.33l.47.18,1.11.44c-1.09,2.69,48.35,9.21,49.81,9.21s3,0,4.5-.11a2.2,2.2,0,0,1,.18.68s-.07,1-.07,1.53c.75,9.13,4.81,16.08,9.69,16.08,5.21,0,9.48-7.91,9.79-17.94q0-.42-.07-.84c0-.41-.08-.81-.15-1.22l.22,0h0c2.82-.45,5.54-1.08,8.25-1.73h.1l.63-.16a34.59,34.59,0,0,0-.58,3.87c0,.39-.06.76-.08,1.14.57,9.54,4.73,16.93,9.76,16.93s9.23-7.48,9.76-17.1q0-.56-.07-1.13a31.19,31.19,0,0,0-2.17-8.92l1.28-.5.46-.18a136.76,136.76,0,0,0,27.7-15h.12c.85-.61,1.7-1.21,2.42-1.7a.11.11,0,0,0,.12-.12,155.72,155.72,0,0,0,14.54-12.24l.12-.12c.73-.61,1.33-1.33,2.06-2.06l.24-.24c.61-.61,1.21-1.33,1.94-1.94.12-.12.24-.24.24-.36.61-.61,1.21-1.33,1.82-2.06.12-.12.12-.24.24-.24.61-.73,1.21-1.45,1.94-2.18l.12-.12a136.24,136.24,0,0,0,9.57-12.48c.12-.12.12-.24.24-.36a10.47,10.47,0,0,0,1-1.45c.12-.24.36-.48.48-.73a1.67,1.67,0,0,1,.36-.48c.48-.73.85-1.45,1.33-2.18.12-.24.24-.36.36-.61.48-.73.85-1.45,1.33-2.18.12-.24.24-.36.36-.61a19.19,19.19,0,0,0,1.21-2.18c.12-.12.12-.36.24-.48.48-.85.85-1.58,1.33-2.42a.42.42,0,0,1,.12-.24c1.45-2.79,2.79-5.7,4.12-8.6,0-.12.12-.12.12-.24l1.09-2.54c.12-.24.12-.48.24-.61.24-.73.61-1.45.85-2.18.12-.24.24-.61.36-.85.24-.73.48-1.45.73-2.06.12-.36.24-.61.36-1,.24-.73.48-1.33.73-2.06.12-.36.24-.61.36-1a13.4,13.4,0,0,0,.61-2.06,2.93,2.93,0,0,0,.24-1c.24-.73.36-1.45.61-2.06.12-.36.12-.61.24-1,.24-.73.36-1.58.61-2.3.12-.24.12-.48.24-.73.24-1,.48-2.06.73-3a140.86,140.86,0,0,0,3.27-25Q668.69,1228,668.53,1225.8Zm-87.24-119.37c-.12.12-.36.12-.48.24h-.12C580.92,1106.55,581,1106.43,581.29,1106.43Z" transform="translate(-344.8 -1082)"/><path class="cls-3" d="M668.66,1223.38a142.18,142.18,0,0,1-3.27,25,138.65,138.65,0,0,1-135.12,108h0a138.59,138.59,0,0,1-135.12-108,96.87,96.87,0,0,1,0-49.93A137.94,137.94,0,0,1,438.77,1125l-43.26,22.78a92.1,92.1,0,0,1,4.12-53.56,60,60,0,0,1,6.06-12c34.9-1.21,64.35,12.72,73.92,17.81a137.31,137.31,0,0,1,50.54-9.57h0a137.31,137.31,0,0,1,50.54,9.57c9.57-5.09,39.14-19.15,74-17.94,0,0,18.54,27,10.18,65.68l-43.26-22.66a138.08,138.08,0,0,1,43.63,73.44A120.3,120.3,0,0,1,668.66,1223.38Z" transform="translate(-344.8 -1082)"/><path class="cls-4" d="M668.66,1223.38a142.18,142.18,0,0,1-3.27,25,138.65,138.65,0,0,1-135.12,108h0V1090.56h0a137.31,137.31,0,0,1,50.54,9.57c9.57-5.09,39.14-19.15,74-17.94,0,0,18.54,27,10.18,65.68l-43.26-22.66a138.08,138.08,0,0,1,43.63,73.44A126.59,126.59,0,0,1,668.66,1223.38Z" transform="translate(-344.8 -1082)"/><path class="cls-3" d="M572.56,1256.46a94.32,94.32,0,0,0,37,75,138.57,138.57,0,0,0,56-83.13,96.87,96.87,0,0,0,0-49.93,137.51,137.51,0,0,0-13.33-35.51A94.77,94.77,0,0,0,572.56,1256.46Z" transform="translate(-344.8 -1082)"/><path class="cls-3" d="M599.1,1105.1a68.79,68.79,0,1,0,.1,0Zm0,120.58h0a52.72,52.72,0,0,0,20.12-4A53.65,53.65,0,0,1,599.1,1225.68Zm0-103.74h0a51.92,51.92,0,0,1,23.63,5.7A51.92,51.92,0,0,0,599.1,1121.94Zm46.05,28.24a51.92,51.92,0,0,1,5.7,23.63h0A51.54,51.54,0,0,0,645.15,1150.18Z" transform="translate(-344.8 -1082)"/><path class="cls-3" d="M450,1173.81a30.42,30.42,0,0,0,53.44,19.87,21.47,21.47,0,0,1-8.85,1.94,21.81,21.81,0,0,1,0-43.63,21.47,21.47,0,0,1,8.85,1.94A30.42,30.42,0,0,0,450,1173.81Z" transform="translate(-344.8 -1082)"/><path class="cls-4" d="M479.61,1100c-44.72-14.54-80.1-5.94-80.1-5.94a60,60,0,0,1,6.06-12C440.59,1081,470,1094.92,479.61,1100Z" transform="translate(-344.8 -1082)"/><ellipse class="cls-3" cx="171.05" cy="279.77" rx="9.82" ry="19.15"/><ellipse class="cls-3" cx="143.29" cy="279.77" rx="9.82" ry="19.15"/><path class="cls-3" d="M582.26,1361.77c0,.69,0,1.38-.06,2-.52,9.62-4.69,17.1-9.76,17.1s-9.19-7.39-9.76-16.93c0-.73-.06-1.47-.06-2.22,0-.39,0-.78,0-1.15s0-1,.07-1.48c.65-9.33,4.76-16.52,9.72-16.52,3.85,0,7.19,4.34,8.8,10.65a33.59,33.59,0,0,1,1,7.34C582.26,1361,582.26,1361.39,582.26,1361.77Z" transform="translate(-344.8 -1082)"/><path class="cls-3" d="M554.38,1361.77c0,.41,0,.81,0,1.21-.32,10-4.58,17.94-9.79,17.94-4.88,0-8.94-7-9.69-16.08-.06-.73-.1-1.45-.11-2.21,0-.28,0-.57,0-.86s0-.78,0-1.15c.3-10,4.57-18,9.79-18s9.49,7.95,9.79,18a1.88,1.88,0,0,1,0,.27C554.38,1361.18,554.38,1361.47,554.38,1361.77Z" transform="translate(-344.8 -1082)"/><path class="cls-3" d="M580.56,1100c44.72-14.54,80.1-5.94,80.1-5.94a60,60,0,0,0-6.06-12C619.7,1081,590.13,1094.92,580.56,1100Z" transform="translate(-344.8 -1082)"/><ellipse class="cls-5" cx="227.64" cy="277.47" rx="9.82" ry="19.15"/><ellipse class="cls-5" cx="199.77" cy="277.47" rx="9.82" ry="19.15"/><path class="cls-3" d="M530.27,1362.74s-27.51-1.74-51.4-9.83l51.4,7.57Z" transform="translate(-344.8 -1082)"/><ellipse class="cls-6" cx="171.05" cy="277.47" rx="9.82" ry="19.15"/><ellipse class="cls-6" cx="143.29" cy="277.47" rx="9.82" ry="19.15"/><circle class="cls-7" cx="254.3" cy="85.27" r="51.87"/><path class="cls-5" d="M599.1,1098.43a68.79,68.79,0,1,0,.1,0Zm0,120.7A51.87,51.87,0,1,1,651,1167.27,51.87,51.87,0,0,1,599.1,1219.14Z" transform="translate(-344.8 -1082)"/><path class="cls-8" d="M610.49,1167.27A30.42,30.42,0,0,1,557,1187.14a21.47,21.47,0,0,0,8.85,1.94,21.81,21.81,0,0,0,0-43.63,21.47,21.47,0,0,0-8.85,1.94,30.42,30.42,0,0,1,53.44,19.87Z" transform="translate(-344.8 -1082)"/><path class="cls-2" d="M389.12,1424.94l-44.32-77.19q96-55.85,186.55-120.19l52.42,74.15Q489.27,1367.74,389.12,1424.94Z" transform="translate(-344.8 -1082)"/><path class="cls-9" d="M389.12,1424.94l68.68-95.3,126-27.93Q489.27,1367.74,389.12,1424.94Z" transform="translate(-344.8 -1082)"/><path class="cls-3" d="M530.27,1249.31s-34.78-23.39,0-42.66Z" transform="translate(-344.8 -1082)"/><path class="cls-3" d="M530.27,1249.31s34.78-23.39,0-42.66Z" transform="translate(-344.8 -1082)"/><path class="cls-6" d="M530.27,1246.28s-34.78-23.39,0-42.66Z" transform="translate(-344.8 -1082)"/><path class="cls-5" d="M530.27,1246.28s34.78-23.39,0-42.66Z" transform="translate(-344.8 -1082)"/><path class="cls-4" d="M488,1256.46a94.28,94.28,0,0,1-36.9,75l-.06,0a138.56,138.56,0,0,1-56-83.13,141.66,141.66,0,0,1-3.11-21.75c-.06-1.07-.11-2.14-.16-3.21a140.86,140.86,0,0,1,3.27-25h0c.27-1.16.55-2.33.84-3.48s.65-2.51,1-3.76a136.92,136.92,0,0,1,11.49-28.26l.11,0c.42.06.84.13,1.26.22l.91.16a94.72,94.72,0,0,1,68.31,52.78q1.31,2.76,2.42,5.61a91.27,91.27,0,0,1,3.41,10.34q.82,3,1.42,6.14A94,94,0,0,1,488,1256.46Z" transform="translate(-344.8 -1082)"/><path class="cls-3" d="M530.19,1170.58a68.8,68.8,0,0,0-68.66-65.48h-.1a68.79,68.79,0,0,0-68.74,65.14c0,.11,0,.22,0,.34v0c0,.42,0,.86,0,1.3q0,1,0,2c0,.52,0,1,0,1.56a.33.33,0,0,0,0,.11c0,.69,0,1.39.07,2.08a68.56,68.56,0,0,0,3.16,17.23l.07.21a68.84,68.84,0,0,0,134.34-21.2v0Q530.27,1172.21,530.19,1170.58Zm-68.76,55.1a51.86,51.86,0,0,1-51.87-51.87q0-1.65.11-3.27a51.23,51.23,0,0,1,3.37-15.43,51.87,51.87,0,0,1,100.15,15.38c.07,1.09.11,2.21.11,3.32a51.88,51.88,0,0,1-51.87,51.87Z" transform="translate(-344.8 -1082)"/><path class="cls-6" d="M488,1103.73a68.4,68.4,0,0,0-26.46-5.3h-.17a68.85,68.85,0,0,0-65.89,49.13c-.3,1-.57,2-.81,2.94a68.86,68.86,0,0,0-2.06,16.76q0,1.67.07,3.31v0a68.77,68.77,0,0,0,4.19,20.57l.07.18a68.84,68.84,0,0,0,133.26-20.77q.07-1.64.07-3.31v0A68.79,68.79,0,0,0,488,1103.73Zm25.21,66.76a51.86,51.86,0,0,1-103.52,0q-.11-1.62-.11-3.27c0-1.39,0-2.76.16-4.12.08-1,.19-2.06.34-3.08a51.87,51.87,0,0,1,103.24,7.2C513.3,1168.35,513.26,1169.43,513.19,1170.49Z" transform="translate(-344.8 -1082)"/><circle class="cls-7" cx="116.63" cy="85.27" r="51.87"/><path class="cls-8" d="M494.52,1189.08a21.47,21.47,0,0,0,8.85-1.94,30.42,30.42,0,1,1,0-39.75,21.47,21.47,0,0,0-8.85-1.94,21.81,21.81,0,1,0,0,43.63Z" transform="translate(-344.8 -1082)"/></svg>