<svg id="Capa_1" data-name="Capa 1" xmlns="http://www.w3.org/2000/svg" viewBox="0 0 277.07 315.71"><defs><style>.cls-1{fill:#036830;}.cls-2{fill:#2f814c;}.cls-3{fill:#ffcf04;}.cls-4{fill:#ffd833;}.cls-5{fill:#fff;}.cls-6{fill:#1d1e1c;}.cls-7{fill:#1d1d1b;}.cls-8{fill:#b2b2b2;}.cls-9{fill:#d8d8d6;}</style></defs><title>Vista 4</title><path class="cls-1" d="M662.75,1195.69a139.12,139.12,0,0,0-3-20.6c-.24-1.21-.61-2.42-.85-3.64.27-.81.51-1.62.74-2.44a67.36,67.36,0,0,0,2.53-18.65,29.54,29.54,0,0,0-.12-3.27c0-1.09.12-2.18.12-3.27a69,69,0,0,0-2.79-19.51,94.67,94.67,0,0,0,2.17-20.06c0-2.28-.08-4.5-.24-6.64v0c-1.72-23.83-12.11-39-12.11-39a33.93,33.93,0,0,1-3.51-.12c-33.45-.24-61.33,13-70.78,17.94a139,139,0,0,0-50.42-9.45h-.19a137,137,0,0,0-42.09,6.63q-4.16,1.33-8.25,2.95a152.31,152.31,0,0,0-18.37-8.24c-14.07-5.28-33.84-10.5-55.8-9.82a64.78,64.78,0,0,0-6.06,12,92,92,0,0,0-4.85,49.9c.21,1.22.46,2.45.73,3.67a69,69,0,0,0-2.44,12.81q-.16,1.61-.25,3.25c0,.11,0,.22,0,.34v0c0,.42,0,.86,0,1.3q0,1,0,2c0,.52,0,1,0,1.56a.33.33,0,0,0,0,.11c0,.45,0,.91.1,1.36,0,.24,0,.48,0,.73a68.57,68.57,0,0,0,3.16,17.23c-.29,1.15-.57,2.32-.84,3.48l.07.25c.24.9.5,1.78.78,2.67-.24,1.21-.61,2.42-.85,3.51a141.91,141.91,0,0,0-3,20.81l-.07.95c-.06,1.07-.11,2.15-.16,3.21a142,142,0,0,0,3.27,25,139.26,139.26,0,0,0,56,83.14,141.58,141.58,0,0,0,14.25,8.69,140,140,0,0,0,13.61,6.33l.47.18,1.12.44c-1.09,2.69,48.36,9.21,49.81,9.21s3,0,4.5-.11a2.2,2.2,0,0,1,.18.68s-.07,1-.07,1.53c.75,9.13,4.81,16.08,9.7,16.08,5.21,0,9.48-7.91,9.79-17.94q0-.42-.07-.84c0-.41-.08-.81-.15-1.22l.22,0h0c2.82-.45,5.54-1.08,8.25-1.73h.1l.63-.16a34.59,34.59,0,0,0-.58,3.87c0,.39-.06.76-.08,1.14.57,9.54,4.73,16.93,9.76,16.93s9.24-7.48,9.76-17.1q0-.56-.07-1.13a31.2,31.2,0,0,0-2.17-8.92l1.28-.5.46-.18a136.78,136.78,0,0,0,27.71-15h.12c.85-.61,1.7-1.21,2.42-1.7a.11.11,0,0,0,.12-.12A155.74,155.74,0,0,0,620.82,1294l.12-.12c.73-.61,1.33-1.33,2.06-2.06l.24-.24c.61-.61,1.21-1.33,1.94-1.94.12-.12.24-.24.24-.36.61-.61,1.21-1.33,1.82-2.06.12-.12.12-.24.24-.24.61-.73,1.21-1.45,1.94-2.18l.12-.12a136.26,136.26,0,0,0,9.58-12.48c.12-.12.12-.24.24-.36a10.47,10.47,0,0,0,1-1.45c.12-.24.36-.48.48-.73a1.67,1.67,0,0,1,.36-.48c.48-.73.85-1.45,1.33-2.18.12-.24.24-.36.36-.61.48-.73.85-1.45,1.33-2.18.12-.24.24-.36.36-.61a19.19,19.19,0,0,0,1.21-2.18c.12-.12.12-.36.24-.48.48-.85.85-1.58,1.33-2.42a.42.42,0,0,1,.12-.24c1.45-2.79,2.79-5.7,4.12-8.61,0-.12.12-.12.12-.24l1.09-2.55c.12-.24.12-.48.24-.61.24-.73.61-1.45.85-2.18.12-.24.24-.61.36-.85.24-.73.48-1.45.73-2.06.12-.36.24-.61.36-1,.24-.73.48-1.33.73-2.06.12-.36.24-.61.36-1a13.4,13.4,0,0,0,.61-2.06,2.93,2.93,0,0,0,.24-1c.24-.73.36-1.45.61-2.06.12-.36.12-.61.24-1,.24-.73.36-1.58.61-2.3.12-.24.12-.48.24-.73.24-1,.48-2.06.73-3a140.88,140.88,0,0,0,3.27-25Q662.91,1197.87,662.75,1195.69Zm-87.25-119.38c-.12.12-.36.12-.48.24h-.12C575.13,1076.43,575.25,1076.31,575.49,1076.31Z" transform="translate(-385.93 -1051.87)"/><path class="cls-1" d="M662.88,1193.27a142.19,142.19,0,0,1-3.27,25,138.67,138.67,0,0,1-135.14,108h0a138.61,138.61,0,0,1-135.14-108,96.88,96.88,0,0,1,0-49.94A138,138,0,0,1,433,1094.85l-43.27,22.79a92.11,92.11,0,0,1,4.12-53.57,60,60,0,0,1,6.06-12c34.91-1.21,64.36,12.73,73.93,17.82a137.32,137.32,0,0,1,50.54-9.57h0a137.32,137.32,0,0,1,50.54,9.57c9.57-5.09,39.15-19.15,74.05-17.94,0,0,18.54,27,10.18,65.69L615.85,1095a138.1,138.1,0,0,1,43.63,73.45A120.32,120.32,0,0,1,662.88,1193.27Z" transform="translate(-385.93 -1051.87)"/><path class="cls-2" d="M662.88,1193.27a142.19,142.19,0,0,1-3.27,25,138.67,138.67,0,0,1-135.14,108h0v-265.8h0A137.32,137.32,0,0,1,575,1070c9.57-5.09,39.15-19.15,74.05-17.94,0,0,18.54,27,10.18,65.69L616,1095.09a138.1,138.1,0,0,1,43.63,73.45A126.61,126.61,0,0,1,662.88,1193.27Z" transform="translate(-385.93 -1051.87)"/><path class="cls-1" d="M566.77,1226.36a94.33,94.33,0,0,0,37,75,138.58,138.58,0,0,0,56-83.14,96.88,96.88,0,0,0,0-49.94,137.53,137.53,0,0,0-13.33-35.51A94.78,94.78,0,0,0,566.77,1226.36Z" transform="translate(-385.93 -1051.87)"/><path class="cls-1" d="M593.31,1075a68.79,68.79,0,1,0,.1,0Zm0,120.6h0a52.72,52.72,0,0,0,20.12-4A53.66,53.66,0,0,1,593.31,1195.57Zm0-103.75h0a51.92,51.92,0,0,1,23.63,5.7A51.92,51.92,0,0,0,593.31,1091.82Zm46.06,28.24a51.92,51.92,0,0,1,5.7,23.63h0A51.55,51.55,0,0,0,639.37,1120.06Z" transform="translate(-385.93 -1051.87)"/><path class="cls-1" d="M444.23,1143.7a30.42,30.42,0,0,0,53.45,19.88,21.48,21.48,0,0,1-8.85,1.94,21.82,21.82,0,0,1,0-43.63,21.48,21.48,0,0,1,8.85,1.94,30.42,30.42,0,0,0-53.45,19.88Z" transform="translate(-385.93 -1051.87)"/><path class="cls-2" d="M473.8,1069.88c-44.72-14.54-80.11-5.94-80.11-5.94a60,60,0,0,1,6.06-12C434.78,1050.85,464.23,1064.79,473.8,1069.88Z" transform="translate(-385.93 -1051.87)"/><ellipse class="cls-1" cx="124.11" cy="279.81" rx="9.82" ry="19.15"/><ellipse class="cls-1" cx="96.36" cy="279.81" rx="9.82" ry="19.15"/><path class="cls-1" d="M576.46,1331.68c0,.69,0,1.38-.06,2-.52,9.62-4.69,17.1-9.76,17.1s-9.19-7.39-9.76-16.93c0-.73-.06-1.47-.06-2.22,0-.39,0-.78,0-1.15s0-1,.07-1.48c.65-9.33,4.76-16.52,9.72-16.52,3.85,0,7.19,4.34,8.8,10.65a33.6,33.6,0,0,1,1,7.34C576.46,1330.9,576.46,1331.29,576.46,1331.68Z" transform="translate(-385.93 -1051.87)"/><path class="cls-1" d="M548.59,1331.68c0,.41,0,.81,0,1.21-.32,10-4.58,17.94-9.79,17.94-4.88,0-8.94-7-9.7-16.08-.06-.73-.1-1.45-.11-2.21,0-.28,0-.57,0-.86s0-.78,0-1.15c.3-10,4.57-18,9.79-18s9.49,8,9.79,18a1.88,1.88,0,0,1,0,.27C548.59,1331.09,548.59,1331.38,548.59,1331.68Z" transform="translate(-385.93 -1051.87)"/><path class="cls-1" d="M574.76,1069.88c44.72-14.54,80.11-5.94,80.11-5.94a60,60,0,0,0-6.06-12C613.91,1050.85,584.34,1064.79,574.76,1069.88Z" transform="translate(-385.93 -1051.87)"/><ellipse class="cls-3" cx="180.71" cy="277.51" rx="9.82" ry="19.15"/><ellipse class="cls-3" cx="152.84" cy="277.51" rx="9.82" ry="19.15"/><path class="cls-1" d="M524.47,1332.65s-27.51-1.74-51.4-9.83l51.4,7.58Z" transform="translate(-385.93 -1051.87)"/><ellipse class="cls-4" cx="124.11" cy="277.51" rx="9.82" ry="19.15"/><ellipse class="cls-4" cx="96.36" cy="277.51" rx="9.82" ry="19.15"/><circle class="cls-5" cx="207.38" cy="85.28" r="51.87"/><path class="cls-3" d="M593.31,1068.31a68.79,68.79,0,1,0,.1,0Zm0,120.72a51.87,51.87,0,1,1,51.87-51.87A51.87,51.87,0,0,1,593.31,1189Z" transform="translate(-385.93 -1051.87)"/><path class="cls-6" d="M604.7,1137.15A30.42,30.42,0,0,1,551.25,1157a21.48,21.48,0,0,0,8.85,1.94,21.82,21.82,0,0,0,0-43.63,21.48,21.48,0,0,0-8.85,1.94,30.42,30.42,0,0,1,53.45,19.88Z" transform="translate(-385.93 -1051.87)"/><path class="cls-2" d="M482.17,1226.36a94.29,94.29,0,0,1-36.91,75l-.06,0a138.58,138.58,0,0,1-56-83.14,141.68,141.68,0,0,1-3.11-21.76c-.06-1.07-.11-2.15-.16-3.21a140.88,140.88,0,0,1,3.27-25h0c.27-1.16.55-2.33.84-3.48s.65-2.51,1-3.76a136.93,136.93,0,0,1,11.49-28.26l.11,0c.42.06.84.13,1.26.22l.91.16A94.74,94.74,0,0,1,473.14,1186q1.31,2.76,2.42,5.61a91.28,91.28,0,0,1,3.41,10.34q.82,3,1.42,6.14A94,94,0,0,1,482.17,1226.36Z" transform="translate(-385.93 -1051.87)"/><path class="cls-1" d="M524.39,1140.46A68.81,68.81,0,0,0,455.72,1075h-.1a68.8,68.8,0,0,0-68.75,65.15c0,.11,0,.22,0,.34v0c0,.42,0,.86,0,1.3q0,1,0,2c0,.52,0,1,0,1.56a.33.33,0,0,0,0,.11c0,.69,0,1.39.07,2.08a68.57,68.57,0,0,0,3.16,17.23l.07.21a68.85,68.85,0,0,0,134.35-21.2v0Q524.47,1142.1,524.39,1140.46Zm-68.77,55.11a51.87,51.87,0,0,1-51.87-51.87q0-1.65.11-3.27a51.24,51.24,0,0,1,3.37-15.43,51.88,51.88,0,0,1,100.16,15.38c.07,1.09.11,2.21.11,3.32a51.88,51.88,0,0,1-51.87,51.87Z" transform="translate(-385.93 -1051.87)"/><path class="cls-4" d="M482.18,1073.61a68.41,68.41,0,0,0-26.46-5.3h-.17a68.86,68.86,0,0,0-65.9,49.14c-.3,1-.57,2-.81,2.95a68.87,68.87,0,0,0-2.06,16.76q0,1.67.07,3.31v0a68.78,68.78,0,0,0,4.19,20.57l.07.18a68.85,68.85,0,0,0,133.27-20.77q.07-1.64.07-3.31v0A68.8,68.8,0,0,0,482.18,1073.61Zm25.21,66.77a51.87,51.87,0,0,1-103.53,0q-.11-1.62-.11-3.27c0-1.39,0-2.76.16-4.12.08-1,.19-2.06.34-3.08a51.88,51.88,0,0,1,103.25,7.2C507.5,1138.23,507.46,1139.31,507.39,1140.38Z" transform="translate(-385.93 -1051.87)"/><circle class="cls-5" cx="69.69" cy="85.28" r="51.87"/><path class="cls-6" d="M488.71,1159a21.48,21.48,0,0,0,8.85-1.94,30.42,30.42,0,1,1,0-39.75,21.48,21.48,0,0,0-8.85-1.94,21.82,21.82,0,1,0,0,43.63Z" transform="translate(-385.93 -1051.87)"/><rect class="cls-7" x="455.32" y="1195.75" width="98.08" height="162.53" rx="5.6" ry="5.6" transform="translate(619.79 -1053.05) rotate(42.97)"/><path class="cls-8" d="M581.15,1253.29l-87,93.45a4.67,4.67,0,0,1-6.58,0l-51.47-47.95a5.07,5.07,0,0,1-1.33-2,4.41,4.41,0,0,1,.82-4.55l87-93.45a4.67,4.67,0,0,1,6.58,0l51.47,47.95a5,5,0,0,1,1.59,3.12A4.28,4.28,0,0,1,581.15,1253.29Z" transform="translate(-385.93 -1051.87)"/><path class="cls-9" d="M582.23,1249.85h0l-147.51,46.88a4.41,4.41,0,0,1,.82-4.55l87-93.45a4.67,4.67,0,0,1,6.58,0l51.47,47.95A5,5,0,0,1,582.23,1249.85Z" transform="translate(-385.93 -1051.87)"/><circle class="cls-9" cx="566.1" cy="1228.61" r="2.31" transform="translate(-1104.69 -246.45) rotate(-47.03)"/><rect class="cls-9" x="568.47" y="1234.65" width="12.99" height="4.43" rx="2.21" ry="2.21" transform="translate(611.36 -1111.95) rotate(42.97)"/><path class="cls-1" d="M524.47,1219.2s-34.79-23.39,0-42.66Z" transform="translate(-385.93 -1051.87)"/><path class="cls-1" d="M524.47,1219.2s34.79-23.39,0-42.66Z" transform="translate(-385.93 -1051.87)"/><path class="cls-4" d="M524.47,1216.17s-34.79-23.39,0-42.66Z" transform="translate(-385.93 -1051.87)"/><path class="cls-3" d="M524.47,1216.17s34.79-23.39,0-42.66Z" transform="translate(-385.93 -1051.87)"/></svg>