<svg id="Capa_1" data-name="Capa 1" xmlns="http://www.w3.org/2000/svg" viewBox="0 0 277.03 439.99"><defs><style>.cls-1{fill:#1d1d1b;}.cls-2{fill:#fff;}.cls-3{fill:#a5a4a4;}.cls-4{fill:#d8d8d6;}.cls-5{fill:#076830;}.cls-6{fill:#30804c;}.cls-7{fill:#ffcf04;}.cls-8{fill:#ffd733;}.cls-9{fill:#1d1e1c;}.cls-10{fill:#b2b2b2;}</style></defs><title>Vista 5</title><path class="cls-1" d="M560.45,1360.34c-4.59-4.93-13.86-9-20.6-9H495.2c-6.74,0-16,4-20.6,9l-18.24,19.58c-4.59,4.93-2.84,9,3.9,9H574.79c6.74,0,8.49-4,3.9-9Z" transform="translate(-386.3 -1093.05)"/><rect class="cls-2" x="105.55" y="263.43" width="51.66" height="25.38"/><rect class="cls-1" x="8.54" y="291.26" width="259.95" height="148.74" rx="14.69" ry="14.69"/><circle class="cls-3" cx="138.52" cy="365.62" r="71.02"/><path class="cls-2" d="M573.25,1458.67a48.45,48.45,0,1,1-13.83-33.87A48.43,48.43,0,0,1,573.25,1458.67Z" transform="translate(-386.3 -1093.05)"/><path class="cls-4" d="M559.42,1424.8l-68.48,68.48a48.43,48.43,0,1,1,68.48-68.48Z" transform="translate(-386.3 -1093.05)"/><path class="cls-5" d="M663.08,1236.86a139.1,139.1,0,0,0-3-20.6c-.24-1.21-.61-2.42-.85-3.64.27-.81.51-1.62.74-2.44a67.35,67.35,0,0,0,2.53-18.65,29.54,29.54,0,0,0-.12-3.27c0-1.09.12-2.18.12-3.27a69,69,0,0,0-2.79-19.51,94.66,94.66,0,0,0,2.17-20.06c0-2.28-.08-4.5-.24-6.64v0c-1.72-23.83-12.11-39-12.11-39a33.93,33.93,0,0,1-3.51-.12c-33.45-.24-61.32,13-70.77,17.94a139,139,0,0,0-50.41-9.45h-.19a137,137,0,0,0-42.09,6.63q-4.16,1.33-8.25,2.94a152.29,152.29,0,0,0-18.37-8.24c-14.07-5.28-33.84-10.49-55.79-9.82a64.78,64.78,0,0,0-6.06,12,92,92,0,0,0-4.85,49.89c.21,1.22.46,2.45.73,3.67a69,69,0,0,0-2.44,12.81q-.16,1.61-.25,3.25c0,.11,0,.22,0,.34v0c0,.42,0,.86,0,1.3q0,1,0,2c0,.52,0,1,0,1.56a.33.33,0,0,0,0,.11c0,.45,0,.91.1,1.36,0,.24,0,.48,0,.73A68.56,68.56,0,0,0,390.4,1206c-.29,1.15-.57,2.31-.84,3.48l.07.25c.24.9.5,1.78.78,2.67-.24,1.21-.61,2.42-.85,3.51a141.89,141.89,0,0,0-3,20.81l-.07.95c-.06,1.07-.11,2.15-.16,3.21a142,142,0,0,0,3.27,25,139.24,139.24,0,0,0,56,83.13,141.57,141.57,0,0,0,14.25,8.69,140,140,0,0,0,13.61,6.33l.47.18,1.11.44c-1.09,2.69,48.35,9.21,49.81,9.21s3,0,4.5-.11a2.2,2.2,0,0,1,.18.68s-.07,1-.07,1.53c.75,9.13,4.81,16.08,9.69,16.08,5.21,0,9.48-7.91,9.79-17.94q0-.42-.07-.84c0-.41-.08-.81-.15-1.22l.22,0h0c2.82-.45,5.54-1.08,8.25-1.73h.1l.63-.16a34.59,34.59,0,0,0-.58,3.87c0,.39-.06.76-.08,1.14.57,9.54,4.73,16.93,9.76,16.93s9.23-7.48,9.76-17.1q0-.56-.07-1.13a31.19,31.19,0,0,0-2.17-8.92l1.28-.5.46-.18a136.76,136.76,0,0,0,27.7-15h.12c.85-.61,1.7-1.21,2.42-1.7a.11.11,0,0,0,.12-.12,155.72,155.72,0,0,0,14.54-12.24l.12-.12c.73-.61,1.33-1.33,2.06-2.06l.24-.24c.61-.61,1.21-1.33,1.94-1.94.12-.12.24-.24.24-.36.61-.61,1.21-1.33,1.82-2.06.12-.12.12-.24.24-.24.61-.73,1.21-1.45,1.94-2.18l.12-.12a136.24,136.24,0,0,0,9.57-12.48c.12-.12.12-.24.24-.36a10.47,10.47,0,0,0,1-1.45c.12-.24.36-.48.48-.73a1.67,1.67,0,0,1,.36-.48c.48-.73.85-1.45,1.33-2.18.12-.24.24-.36.36-.61.48-.73.85-1.45,1.33-2.18.12-.24.24-.36.36-.61a19.19,19.19,0,0,0,1.21-2.18c.12-.12.12-.36.24-.48.48-.85.85-1.58,1.33-2.42a.42.42,0,0,1,.12-.24c1.45-2.79,2.79-5.7,4.12-8.6,0-.12.12-.12.12-.24l1.09-2.54c.12-.24.12-.48.24-.61.24-.73.61-1.45.85-2.18.12-.24.24-.61.36-.85.24-.73.48-1.45.73-2.06.12-.36.24-.61.36-1,.24-.73.48-1.33.73-2.06.12-.36.24-.61.36-1a13.4,13.4,0,0,0,.61-2.06,2.93,2.93,0,0,0,.24-1c.24-.73.36-1.45.61-2.06.12-.36.12-.61.24-1,.24-.73.36-1.58.61-2.3.12-.24.12-.48.24-.73.24-1,.48-2.06.73-3a140.86,140.86,0,0,0,3.27-25Q663.24,1239,663.08,1236.86Zm-87.24-119.37c-.12.12-.36.12-.48.24h-.12C575.47,1117.61,575.59,1117.49,575.83,1117.49Z" transform="translate(-386.3 -1093.05)"/><path class="cls-5" d="M663.21,1234.43a142.18,142.18,0,0,1-3.27,25,138.65,138.65,0,0,1-135.12,108h0a138.59,138.59,0,0,1-135.12-108,96.87,96.87,0,0,1,0-49.93A137.94,137.94,0,0,1,433.32,1136l-43.26,22.78a92.1,92.1,0,0,1,4.12-53.56,60,60,0,0,1,6.06-12c34.9-1.21,64.35,12.72,73.92,17.81a137.31,137.31,0,0,1,50.54-9.57h0a137.31,137.31,0,0,1,50.54,9.57c9.57-5.09,39.14-19.15,74-17.94,0,0,18.54,27,10.18,65.68l-43.26-22.66a138.08,138.08,0,0,1,43.63,73.44A120.3,120.3,0,0,1,663.21,1234.43Z" transform="translate(-386.3 -1093.05)"/><path class="cls-6" d="M663.21,1234.43a142.18,142.18,0,0,1-3.27,25,138.65,138.65,0,0,1-135.12,108h0V1101.61h0a137.31,137.31,0,0,1,50.54,9.57c9.57-5.09,39.14-19.15,74-17.94,0,0,18.54,27,10.18,65.68l-43.26-22.66a138.08,138.08,0,0,1,43.63,73.44A126.59,126.59,0,0,1,663.21,1234.43Z" transform="translate(-386.3 -1093.05)"/><path class="cls-5" d="M567.11,1267.52a94.32,94.32,0,0,0,37,75,138.57,138.57,0,0,0,56-83.13,96.87,96.87,0,0,0,0-49.93A137.51,137.51,0,0,0,646.73,1174,94.77,94.77,0,0,0,567.11,1267.52Z" transform="translate(-386.3 -1093.05)"/><path class="cls-5" d="M593.65,1116.15a68.79,68.79,0,1,0,.1,0Zm0,120.58h0a52.72,52.72,0,0,0,20.12-4A53.65,53.65,0,0,1,593.65,1236.73Zm0-103.74h0a51.92,51.92,0,0,1,23.63,5.7A51.92,51.92,0,0,0,593.65,1133Zm46.05,28.24a51.92,51.92,0,0,1,5.7,23.63h0A51.54,51.54,0,0,0,639.7,1161.23Z" transform="translate(-386.3 -1093.05)"/><path class="cls-5" d="M444.59,1184.87A30.42,30.42,0,0,0,498,1204.74a21.47,21.47,0,0,1-8.85,1.94,21.81,21.81,0,0,1,0-43.63A21.47,21.47,0,0,1,498,1165a30.42,30.42,0,0,0-53.44,19.87Z" transform="translate(-386.3 -1093.05)"/><path class="cls-6" d="M474.16,1111.06c-44.72-14.54-80.1-5.94-80.1-5.94a60,60,0,0,1,6.06-12C435.14,1092,464.58,1106,474.16,1111.06Z" transform="translate(-386.3 -1093.05)"/><ellipse class="cls-5" cx="124.1" cy="279.77" rx="9.82" ry="19.15"/><ellipse class="cls-5" cx="96.34" cy="279.77" rx="9.82" ry="19.15"/><path class="cls-5" d="M576.8,1372.83c0,.69,0,1.38-.06,2-.52,9.62-4.69,17.1-9.76,17.1s-9.19-7.39-9.76-16.93c0-.73-.06-1.47-.06-2.22,0-.39,0-.78,0-1.15s0-1,.07-1.48c.65-9.33,4.76-16.52,9.72-16.52,3.85,0,7.19,4.34,8.8,10.65a33.59,33.59,0,0,1,1,7.34C576.8,1372.05,576.8,1372.44,576.8,1372.83Z" transform="translate(-386.3 -1093.05)"/><path class="cls-5" d="M548.93,1372.83c0,.41,0,.81,0,1.21-.32,10-4.58,17.94-9.79,17.94-4.88,0-8.94-7-9.69-16.08-.06-.73-.1-1.45-.11-2.21,0-.28,0-.57,0-.86s0-.78,0-1.15c.3-10,4.57-18,9.79-18s9.49,7.95,9.79,18a1.87,1.87,0,0,1,0,.27C548.93,1372.23,548.93,1372.52,548.93,1372.83Z" transform="translate(-386.3 -1093.05)"/><path class="cls-5" d="M575.11,1111.06c44.72-14.54,80.1-5.94,80.1-5.94a60,60,0,0,0-6.06-12C614.25,1092,584.68,1106,575.11,1111.06Z" transform="translate(-386.3 -1093.05)"/><ellipse class="cls-7" cx="180.69" cy="277.47" rx="9.82" ry="19.15"/><ellipse class="cls-7" cx="152.82" cy="277.47" rx="9.82" ry="19.15"/><path class="cls-5" d="M524.81,1373.8s-27.51-1.74-51.4-9.83l51.4,7.57Z" transform="translate(-386.3 -1093.05)"/><ellipse class="cls-8" cx="124.1" cy="277.47" rx="9.82" ry="19.15"/><ellipse class="cls-8" cx="96.34" cy="277.47" rx="9.82" ry="19.15"/><circle class="cls-2" cx="207.35" cy="85.27" r="51.87"/><path class="cls-7" d="M593.65,1109.49a68.79,68.79,0,1,0,.1,0Zm0,120.7a51.87,51.87,0,1,1,51.87-51.87A51.87,51.87,0,0,1,593.65,1230.19Z" transform="translate(-386.3 -1093.05)"/><path class="cls-9" d="M605,1178.32a30.42,30.42,0,0,1-53.44,19.87,21.47,21.47,0,0,0,8.85,1.94,21.81,21.81,0,0,0,0-43.63,21.47,21.47,0,0,0-8.85,1.94A30.42,30.42,0,0,1,605,1178.32Z" transform="translate(-386.3 -1093.05)"/><path class="cls-6" d="M482.52,1267.52a94.28,94.28,0,0,1-36.9,75l-.06,0a138.56,138.56,0,0,1-56-83.13,141.66,141.66,0,0,1-3.11-21.75c-.06-1.07-.11-2.14-.16-3.21a140.86,140.86,0,0,1,3.27-25h0c.27-1.16.55-2.33.84-3.48s.65-2.51,1-3.76A136.92,136.92,0,0,1,402.9,1174l.11,0c.42.06.84.13,1.26.22l.91.16a94.72,94.72,0,0,1,68.31,52.78q1.31,2.76,2.42,5.61a91.27,91.27,0,0,1,3.41,10.34q.82,3,1.42,6.14A94,94,0,0,1,482.52,1267.52Z" transform="translate(-386.3 -1093.05)"/><path class="cls-5" d="M524.74,1181.63a68.8,68.8,0,0,0-68.66-65.48H456a68.79,68.79,0,0,0-68.74,65.14c0,.11,0,.22,0,.34v0c0,.42,0,.86,0,1.3q0,1,0,2c0,.52,0,1,0,1.56a.33.33,0,0,0,0,.11c0,.69,0,1.39.07,2.08A68.56,68.56,0,0,0,390.4,1206l.07.21A68.84,68.84,0,0,0,524.81,1185v0Q524.81,1183.27,524.74,1181.63ZM456,1236.74a51.86,51.86,0,0,1-51.87-51.87q0-1.65.11-3.27a51.23,51.23,0,0,1,3.37-15.43,51.87,51.87,0,0,1,100.15,15.38c.07,1.09.11,2.21.11,3.32A51.88,51.88,0,0,1,456,1236.74Z" transform="translate(-386.3 -1093.05)"/><path class="cls-8" d="M482.53,1114.78a68.4,68.4,0,0,0-26.46-5.3h-.17A68.85,68.85,0,0,0,390,1158.62c-.3,1-.57,2-.81,2.94a68.86,68.86,0,0,0-2.06,16.76q0,1.67.07,3.31v0a68.77,68.77,0,0,0,4.19,20.57l.07.18a68.84,68.84,0,0,0,133.26-20.77q.07-1.64.07-3.31v0A68.79,68.79,0,0,0,482.53,1114.78Zm25.21,66.76a51.86,51.86,0,0,1-103.52,0q-.11-1.62-.11-3.27c0-1.39,0-2.76.16-4.12.08-1,.19-2.06.34-3.08a51.87,51.87,0,0,1,103.24,7.2C507.85,1179.4,507.81,1180.48,507.74,1181.55Z" transform="translate(-386.3 -1093.05)"/><circle class="cls-2" cx="69.68" cy="85.27" r="51.87"/><path class="cls-9" d="M489.06,1200.14a21.47,21.47,0,0,0,8.85-1.94,30.42,30.42,0,1,1,0-39.75,21.47,21.47,0,0,0-8.85-1.94,21.81,21.81,0,1,0,0,43.63Z" transform="translate(-386.3 -1093.05)"/><rect class="cls-10" x="478.43" y="1251.02" width="88.25" height="106.73" transform="translate(658.11 -1093.34) rotate(43.63)"/><rect class="cls-4" x="496.65" y="1262.54" width="72.09" height="62.42" transform="translate(653.58 -1103.27) rotate(43.63)"/><path class="cls-5" d="M524.81,1260.37s-34.78-23.39,0-42.66Z" transform="translate(-386.3 -1093.05)"/><path class="cls-5" d="M524.81,1260.37s34.78-23.39,0-42.66Z" transform="translate(-386.3 -1093.05)"/><path class="cls-8" d="M524.81,1257.34s-34.78-23.39,0-42.66Z" transform="translate(-386.3 -1093.05)"/><path class="cls-7" d="M524.81,1257.34s34.78-23.39,0-42.66Z" transform="translate(-386.3 -1093.05)"/></svg>