<svg id="Capa_1" data-name="Capa 1" xmlns="http://www.w3.org/2000/svg" viewBox="0 0 760.78 623.94"><defs><style>.cls-1{fill:#788bc5;}.cls-2{fill:#3e5ca4;}.cls-3{fill:#2b4288;}.cls-4{fill:#ffd833;}.cls-5{fill:#ffcf04;}.cls-6{fill:#036830;}.cls-7{fill:#fff;}.cls-8{fill:#1d1e1c;}.cls-9{fill:#f7b781;}.cls-10{fill:#f18d44;}.cls-11{fill:#e84946;}.cls-12{fill:#d6201f;}</style></defs><title>Vista 3</title><path class="cls-1" d="M366.7,952.85l27.67-27.67v36.5h37V862H331.7v37h36.5l-27.67,27.67a105.32,105.32,0,1,0,26.17,26.17ZM394.37,899v.42l-.42-.42ZM227.62,1065.76a74.47,74.47,0,1,1,105.32,0A74.47,74.47,0,0,1,227.62,1065.76Z" transform="translate(-132.98 -599.64)"/><path class="cls-2" d="M408.71,778.88c0-.31,0-.64-.07-1a138.54,138.54,0,0,0-3-20.52c-.24-1.21-.6-2.41-.84-3.62.27-.81.51-1.62.74-2.43,0-.06,0-.12,0-.18s.07-.24.1-.36a66.91,66.91,0,0,0,2.38-18,25.38,25.38,0,0,0-.1-2.87c0-.13,0-.25,0-.39,0-1.09.12-2.17.12-3.26V726c0-.71,0-1.44,0-2.15v-.23a3.75,3.75,0,0,0,0-.52c0-.52,0-1-.08-1.57a4.16,4.16,0,0,0,0-.56c0-.71-.11-1.42-.19-2.14s-.16-1.42-.27-2.12c0-.13,0-.28-.06-.42-.07-.52-.14-1-.24-1.53s-.17-1-.28-1.51-.18-1-.29-1.5l-.07-.31c-.16-.7-.31-1.4-.49-2.1s-.36-1.38-.56-2.05c0-.14-.08-.29-.12-.43.28-1.3.53-2.59.75-3.87a93.39,93.39,0,0,0,1.41-16.1c0-1.73,0-3.4-.13-5v0l-.11-1.53v0a89.62,89.62,0,0,0-9.34-34.08,48.31,48.31,0,0,0-2.72-4.72,33.79,33.79,0,0,1-3.5-.12,138.27,138.27,0,0,0-31.07,3.44h0a164.48,164.48,0,0,0-21.24,6.34,159,159,0,0,0-18.16,8.09c-2.64-1-5.32-2-8-2.84a138.52,138.52,0,0,0-42.2-6.58h-.19a136.42,136.42,0,0,0-41.92,6.6q-4.15,1.32-8.22,2.93a151.67,151.67,0,0,0-18.3-8.21,162.31,162.31,0,0,0-21-6.31,138,138,0,0,0-34.56-3.46c-1,1.56-1.93,3.16-2.8,4.79a64.6,64.6,0,0,0-3.23,7.16,91.69,91.69,0,0,0-4.83,49.7c.21,1.22.46,2.44.72,3.64a68.76,68.76,0,0,0-2.43,12.76q-.16,1.61-.25,3.24c0,.11,0,.22,0,.34v0c0,.43,0,.86,0,1.29q0,1,0,2c0,.52,0,1,0,1.56a.33.33,0,0,0,0,.11c0,.45,0,.89.1,1.35,0,.24,0,.48,0,.72a68.38,68.38,0,0,0,3.15,17.16c-.29,1.15-.57,2.31-.83,3.46l.07.25c.24.88.49,1.77.77,2.66-.24,1.21-.6,2.41-.84,3.5a141.32,141.32,0,0,0-3,20.72l-.07.94c-.06,1.06-.11,2.14-.16,3.2a141.42,141.42,0,0,0,3.26,24.86A138.68,138.68,0,0,0,192,889.55a141,141,0,0,0,14.19,8.65,139.45,139.45,0,0,0,13.55,6.3l.47.18,1.11.43c-.45,1.1,7.52,2.82,17.2,4.49l.16,0c.13,0,.27,0,.4.07,2.5.43,5.12.86,7.71,1.27h.07c7.43,1.15,14.8,2.16,19.38,2.76h.1l4.08.49.51,0c1.5,0,3,0,4.48-.11,0,0,.1.24.16.46a1.65,1.65,0,0,1,0,.23c0,.12-.07,1-.07,1.51.75,9.09,4.79,16,9.66,16,5.19,0,9.44-7.88,9.75-17.86,0-.27,0-.54-.07-.81v0c0-.41-.08-.81-.14-1.22l.22,0h0c2.81-.45,5.52-1.07,8.22-1.73h.1l.63-.16a34,34,0,0,0-.58,3.83s0,0,0,0c0,.39-.06.76-.08,1.13.57,9.5,4.71,16.86,9.72,16.86s9.2-7.45,9.72-17q0-.56-.07-1.12h0a31,31,0,0,0-2.16-8.87l1.28-.49.46-.18a136.21,136.21,0,0,0,27.59-14.89h.12c.84-.6,1.69-1.21,2.41-1.69a.11.11,0,0,0,.12-.12,155.07,155.07,0,0,0,14.48-12.19l.12-.12c.72-.6,1.33-1.33,2.05-2.05l.24-.24c.6-.6,1.21-1.33,1.93-1.93.12-.12.24-.24.24-.36.6-.6,1.21-1.33,1.81-2.05.12-.12.12-.24.24-.24.6-.72,1.21-1.45,1.93-2.17l.12-.12a135.69,135.69,0,0,0,9.54-12.43c.12-.12.12-.24.24-.36a10.42,10.42,0,0,0,1-1.45c.12-.24.36-.48.48-.72a1.67,1.67,0,0,1,.36-.48c.48-.72.84-1.45,1.33-2.17.12-.24.24-.36.36-.6.48-.72.84-1.45,1.33-2.17.12-.24.24-.36.36-.6a19.11,19.11,0,0,0,1.21-2.17c.12-.12.12-.36.24-.48.48-.84.84-1.57,1.33-2.41a.42.42,0,0,1,.12-.24c1.45-2.78,2.78-5.67,4.1-8.57,0-.12.12-.12.12-.24l1.09-2.53c.12-.24.12-.48.24-.6.24-.72.6-1.45.84-2.17.12-.24.24-.6.36-.84.24-.72.48-1.45.72-2.05.12-.36.24-.6.36-1,.24-.72.48-1.33.72-2.05.12-.36.24-.6.36-1a13.34,13.34,0,0,0,.6-2.05,2.91,2.91,0,0,0,.24-1c.24-.72.36-1.45.6-2.05.12-.36.12-.6.24-1,.24-.72.36-1.57.6-2.29.12-.24.12-.48.24-.72.24-1,.48-2.05.72-3a140.29,140.29,0,0,0,3.26-24.86C408.84,781.13,408.78,780,408.71,778.88ZM321.75,659c-.12.12-.36.12-.48.24h-.12C321.39,659.15,321.51,659,321.75,659Z" transform="translate(-132.98 -599.64)"/><path class="cls-2" d="M408.77,775.5a141.6,141.6,0,0,1-3.26,24.86A138.09,138.09,0,0,1,270.94,907.9h0A138,138,0,0,1,136.36,800.36a140.12,140.12,0,0,1-3.26-24.86,140.12,140.12,0,0,1,3.26-24.86,137.38,137.38,0,0,1,43.45-73.14l-43.09,22.69a91.73,91.73,0,0,1,4.1-53.35,59.74,59.74,0,0,1,6-11.95c34.76-1.21,64.09,12.67,73.62,17.74a136.75,136.75,0,0,1,50.33-9.54h0a136.75,136.75,0,0,1,50.33,9.54c9.54-5.07,39-19.07,73.75-17.86,0,0,18.47,26.92,10.14,65.42l-43.09-22.57a137.52,137.52,0,0,1,43.45,73.14A119.81,119.81,0,0,1,408.77,775.5Z" transform="translate(-132.98 -599.64)"/><path class="cls-1" d="M408.77,775.5a141.6,141.6,0,0,1-3.26,24.86A138.09,138.09,0,0,1,270.94,907.9h0V643.21h0a136.75,136.75,0,0,1,50.33,9.54c9.54-5.07,39-19.07,73.75-17.86,0,0,18.47,26.92,10.14,65.42l-43.09-22.57a137.52,137.52,0,0,1,43.45,73.14A126.08,126.08,0,0,1,408.77,775.5Z" transform="translate(-132.98 -599.64)"/><path class="cls-3" d="M270.94,801.33s-34.64-23.29,0-42.49Z" transform="translate(-132.98 -599.64)"/><path class="cls-3" d="M270.94,801.33s34.64-23.29,0-42.49Z" transform="translate(-132.98 -599.64)"/><path class="cls-4" d="M270.94,798.31s-34.64-23.29,0-42.49Z" transform="translate(-132.98 -599.64)"/><path class="cls-5" d="M270.94,798.31s34.64-23.29,0-42.49Z" transform="translate(-132.98 -599.64)"/><path class="cls-1" d="M228.81,808.45a93.9,93.9,0,0,1-36.75,74.66l-.06,0a138,138,0,0,1-55.76-82.8,141.09,141.09,0,0,1-3.1-21.67c-.06-1.06-.11-2.14-.16-3.2a140.29,140.29,0,0,1,3.26-24.86h0c.27-1.16.54-2.32.83-3.46s.65-2.51,1-3.75a136.53,136.53,0,0,1,11.44-28.13l.11,0c.42.06.83.13,1.26.22l.91.16A93.91,93.91,0,0,1,192,733.61q2.52,1.92,4.88,4s0,0,0,0a94.33,94.33,0,0,1,6.86,6.69A92.19,92.19,0,0,1,212.24,755a93.86,93.86,0,0,1,7.58,13.19,0,0,0,0,1,0,0c.86,1.82,1.67,3.68,2.4,5.58a90.9,90.9,0,0,1,3.39,10.3q.81,3,1.41,6.12A93.58,93.58,0,0,1,228.81,808.45Z" transform="translate(-132.98 -599.64)"/><path class="cls-2" d="M313.06,808.45a93.94,93.94,0,0,0,36.81,74.71,138,138,0,0,0,55.76-82.8,140.12,140.12,0,0,0,3.26-24.86,140.12,140.12,0,0,0-3.26-24.86,137,137,0,0,0-13.28-35.36A94.38,94.38,0,0,0,313.06,808.45Z" transform="translate(-132.98 -599.64)"/><path class="cls-2" d="M270.86,722.91a68.52,68.52,0,0,0-68.39-65.21h-.1a68.55,68.55,0,0,0-68.46,64.87c0,.11,0,.22,0,.34v0c0,.43,0,.86,0,1.29q0,1,0,2c0,.52,0,1,0,1.56a.33.33,0,0,0,0,.11c0,.69,0,1.39.07,2.08a68.38,68.38,0,0,0,3.15,17.16l.07.21a68.56,68.56,0,0,0,133.79-21.11v0Q270.94,724.54,270.86,722.91Zm-68.48,54.88a51.65,51.65,0,0,1-51.66-51.66q0-1.65.11-3.26a50.72,50.72,0,0,1,1-7.21,50.19,50.19,0,0,1,2.41-8.17,51.66,51.66,0,0,1,99.73,15.33s0,0,0,0q.11,1.61.11,3.26a51.67,51.67,0,0,1-51.66,51.66Z" transform="translate(-132.98 -599.64)"/><path class="cls-2" d="M391,723.81a.3.3,0,0,1,0,.1,0,0,0,0,1,0,0A.15.15,0,0,0,391,723.81Zm-1-8.12c.19.93.36,1.87.49,2.82-.13-1-.3-1.89-.48-2.82Zm-.78-3.25c-.25-.94-.53-1.88-.86-2.81C388.64,710.56,388.93,711.5,389.18,712.44Zm-1.92-5.67c.12.29.23.59.34.88a1.13,1.13,0,0,1,.07.18l0,0-.07-.19Q387.46,707.22,387.26,706.77Zm-47.77,71a52.32,52.32,0,0,0,20-4A53.34,53.34,0,0,1,339.49,777.79Zm68.51-54v-.23c0-.23,0-.45,0-.68,0-.47-.06-.94-.1-1.41a4.16,4.16,0,0,0,0-.56c0-.71-.11-1.42-.19-2.14s-.16-1.42-.27-2.12c0-.13,0-.28-.06-.42-.07-.52-.14-1-.24-1.53s-.17-1-.28-1.51-.18-1-.29-1.5l-.07-.31c-.16-.7-.31-1.4-.49-2.1s-.36-1.38-.56-2.05a67.1,67.1,0,0,0-3-8.41.17.17,0,0,0,0-.08,68.49,68.49,0,0,0-62.74-41.06h-.1A68.57,68.57,0,0,0,271,722.93c0,1.09-.07,2.17-.07,3.27v0a68.56,68.56,0,0,0,133.71,21.36.67.67,0,0,0,0-.14l.11-.31A68.5,68.5,0,0,0,408,729.9c.06-1.21.1-2.43.1-3.64V726C408,725.25,408,724.53,408,723.81Z" transform="translate(-132.98 -599.64)"/><path class="cls-6" d="M191,726.13a30.29,30.29,0,0,0,53.23,19.79,21.39,21.39,0,0,1-8.81,1.93,21.73,21.73,0,0,1,0-43.45,21.39,21.39,0,0,1,8.81,1.93A30.29,30.29,0,0,0,191,726.13Z" transform="translate(-132.98 -599.64)"/><path class="cls-4" d="M228.83,656.33a68.12,68.12,0,0,0-26.35-5.27h-.17A68.57,68.57,0,0,0,136.69,700c-.3,1-.57,2-.81,2.94a68.41,68.41,0,0,0-2.05,16.68q0,1.67.07,3.29v0a68.12,68.12,0,0,0,4.18,20.47.63.63,0,0,0,.07.19,68.56,68.56,0,0,0,132.72-20.69q.07-1.63.07-3.29v0A68.52,68.52,0,0,0,228.83,656.33ZM254,722.27a4.15,4.15,0,0,1,0,.56s0,0,0,0c0,.77-.12,1.53-.2,2.29,0,.13,0,.27,0,.4q-.11,1-.26,1.93l-.06.36c-.11.71-.24,1.42-.38,2.12V730A51.68,51.68,0,0,1,205,771.2c-.88,0-1.76.07-2.66.07a51.65,51.65,0,0,1-51.55-48.4q-.11-1.61-.11-3.26c0-1.39,0-2.75.16-4.1.08-1,.19-2.05.34-3.07A51.66,51.66,0,0,1,254,719.61C254,720.51,254,721.39,254,722.27Z" transform="translate(-132.98 -599.64)"/><circle class="cls-7" cx="69.4" cy="119.97" r="51.66"/><circle class="cls-7" cx="206.51" cy="119.97" r="51.66"/><path class="cls-5" d="M406,702.95c-.25-1-.52-2-.81-2.93a2.64,2.64,0,0,0-.08-.29,68.52,68.52,0,0,0-65.54-48.66h-.28a68.5,68.5,0,0,0-68.37,68.51v0c0,1.11,0,2.22.07,3.32a68.57,68.57,0,0,0,132.63,20.9s0-.08,0-.13l.11-.3A68.07,68.07,0,0,0,408,723.07a.74.74,0,0,1,0-.16q.07-1.63.07-3.29A69,69,0,0,0,406,702.95Zm-14.94,19.32c0,.52-.06,1-.11,1.53,0,0,0,0,0,0a51.7,51.7,0,0,1-48.82,47.39c-.88,0-1.76.07-2.66.07A51.66,51.66,0,1,1,379.3,686.7a.66.66,0,0,1,.08.11,51.3,51.3,0,0,1,11.32,26s0,.07,0,.11c.11.86.19,1.73.27,2.6.11,1.35.16,2.72.16,4.1C391.15,720.51,391.13,721.39,391.08,722.27Z" transform="translate(-132.98 -599.64)"/><path class="cls-8" d="M235.33,741.34a21.39,21.39,0,0,0,8.81-1.93,30.29,30.29,0,1,1,0-39.59,21.39,21.39,0,0,0-8.81-1.93,21.73,21.73,0,1,0,0,43.45Z" transform="translate(-132.98 -599.64)"/><path class="cls-8" d="M350.84,719.61a30.29,30.29,0,0,1-53.23,19.79,21.39,21.39,0,0,0,8.81,1.93,21.73,21.73,0,0,0,0-43.45,21.39,21.39,0,0,0-8.81,1.93,30.29,30.29,0,0,1,53.23,19.79Z" transform="translate(-132.98 -599.64)"/><path class="cls-1" d="M220.49,652.63c-44.54-14.48-79.78-5.91-79.78-5.91a59.74,59.74,0,0,1,6-11.95C181.62,633.68,211,647.56,220.49,652.63Z" transform="translate(-132.98 -599.64)"/><ellipse class="cls-6" cx="123.59" cy="313.69" rx="9.78" ry="19.07"/><ellipse class="cls-6" cx="95.95" cy="313.69" rx="9.78" ry="19.07"/><path class="cls-6" d="M322.72,913.33c0,.69,0,1.38-.06,2-.52,9.58-4.67,17-9.72,17s-9.15-7.36-9.72-16.86c0-.72-.06-1.46-.06-2.21,0-.39,0-.77,0-1.15s0-1,.07-1.47c.65-9.29,4.74-16.45,9.68-16.45,3.84,0,7.16,4.32,8.76,10.61a33.46,33.46,0,0,1,1,7.31C322.72,912.56,322.72,912.95,322.72,913.33Z" transform="translate(-132.98 -599.64)"/><path class="cls-6" d="M295,913.33c0,.41,0,.81,0,1.21-.31,10-4.56,17.86-9.75,17.86-4.86,0-8.91-6.93-9.66-16-.06-.72-.1-1.45-.11-2.2,0-.28,0-.57,0-.86s0-.77,0-1.15c.3-10,4.55-17.92,9.75-17.92s9.45,7.92,9.75,17.92a1.87,1.87,0,0,1,0,.27C295,912.74,295,913,295,913.33Z" transform="translate(-132.98 -599.64)"/><path class="cls-3" d="M321,652.63c44.54-14.48,79.78-5.91,79.78-5.91a59.74,59.74,0,0,0-6-11.95C360,633.68,330.56,647.56,321,652.63Z" transform="translate(-132.98 -599.64)"/><ellipse class="cls-5" cx="179.96" cy="311.4" rx="9.78" ry="19.07"/><ellipse class="cls-5" cx="152.2" cy="311.4" rx="9.78" ry="19.07"/><path class="cls-6" d="M270.94,914.3s-27.4-1.74-51.19-9.79l51.19,7.54Z" transform="translate(-132.98 -599.64)"/><ellipse class="cls-4" cx="123.59" cy="311.4" rx="9.78" ry="19.07"/><ellipse class="cls-4" cx="95.95" cy="311.4" rx="9.78" ry="19.07"/><path class="cls-9" d="M741.76,1113.55h0v37.32H703v37h38.79v35.71h37v-35.71h38.79v-37H778.78v-37.32h0a105.33,105.33,0,1,0-37,0Zm18.5-178.19a74.47,74.47,0,1,1-74.46,74.46A74.47,74.47,0,0,1,760.26,935.36Z" transform="translate(-132.98 -599.64)"/><path class="cls-10" d="M893.51,779.33a138.54,138.54,0,0,0-3-20.52c-.24-1.21-.6-2.41-.84-3.62.27-.81.51-1.62.74-2.43a67.08,67.08,0,0,0,2.52-18.58,29.42,29.42,0,0,0-.12-3.26c0-1.09.12-2.17.12-3.26a68.76,68.76,0,0,0-2.78-19.43,94.28,94.28,0,0,0,2.16-20c0-2.27-.08-4.48-.24-6.61v0c-1.71-23.73-12.06-38.8-12.06-38.8a33.79,33.79,0,0,1-3.5-.12c-33.31-.24-61.07,12.91-70.49,17.86a138.46,138.46,0,0,0-50.21-9.41h-.19a136.42,136.42,0,0,0-41.92,6.6q-4.15,1.32-8.22,2.93a151.67,151.67,0,0,0-18.3-8.21c-14-5.26-33.7-10.45-55.57-9.78a64.51,64.51,0,0,0-6,11.95,91.66,91.66,0,0,0-4.83,49.69c.21,1.22.46,2.44.72,3.66A68.75,68.75,0,0,0,619,720.76q-.16,1.61-.25,3.24c0,.11,0,.22,0,.34v0c0,.42,0,.86,0,1.29q0,1,0,2c0,.52,0,1,0,1.56a.33.33,0,0,0,0,.11c0,.45,0,.91.1,1.35,0,.24,0,.48,0,.72a68.29,68.29,0,0,0,3.15,17.16c-.29,1.15-.57,2.31-.83,3.46l.07.25c.24.89.49,1.77.77,2.66-.24,1.21-.6,2.41-.84,3.5a141.32,141.32,0,0,0-3,20.72l-.07.94c-.06,1.06-.11,2.14-.16,3.2a141.42,141.42,0,0,0,3.26,24.86A138.68,138.68,0,0,0,676.87,891a141,141,0,0,0,14.19,8.65,139.43,139.43,0,0,0,13.55,6.3l.47.18,1.11.43c-1.09,2.68,48.16,9.17,49.61,9.17s3,0,4.48-.11a2.19,2.19,0,0,1,.18.68s-.07,1-.07,1.52c.75,9.09,4.79,16,9.66,16,5.19,0,9.44-7.88,9.75-17.86q0-.42-.07-.83c0-.41-.08-.81-.14-1.22l.22,0h0c2.81-.45,5.52-1.07,8.22-1.73h.1l.63-.16a34.45,34.45,0,0,0-.58,3.85c0,.39-.06.76-.08,1.13.57,9.5,4.71,16.86,9.72,16.86s9.2-7.45,9.72-17q0-.56-.07-1.12a31.06,31.06,0,0,0-2.16-8.88l1.28-.49.46-.18a136.21,136.21,0,0,0,27.59-14.89h.12c.84-.6,1.69-1.21,2.41-1.69a.11.11,0,0,0,.12-.12,155.09,155.09,0,0,0,14.48-12.19l.12-.12c.72-.6,1.33-1.33,2.05-2.05l.24-.24c.6-.6,1.21-1.33,1.93-1.93.12-.12.24-.24.24-.36.6-.6,1.21-1.33,1.81-2.05.12-.12.12-.24.24-.24.6-.72,1.21-1.45,1.93-2.17l.12-.12A135.69,135.69,0,0,0,870,855.49c.12-.12.12-.24.24-.36a10.42,10.42,0,0,0,1-1.45c.12-.24.36-.48.48-.72a1.67,1.67,0,0,1,.36-.48c.48-.72.84-1.45,1.33-2.17.12-.24.24-.36.36-.6.48-.72.84-1.45,1.33-2.17.12-.24.24-.36.36-.6a19.11,19.11,0,0,0,1.21-2.17c.12-.12.12-.36.24-.48.48-.84.84-1.57,1.33-2.41a.42.42,0,0,1,.12-.24c1.45-2.78,2.78-5.67,4.1-8.57,0-.12.12-.12.12-.24l1.09-2.53c.12-.24.12-.48.24-.6.24-.72.6-1.45.84-2.17.12-.24.24-.6.36-.84.24-.72.48-1.45.72-2.05.12-.36.24-.6.36-1,.24-.72.48-1.33.72-2.05.12-.36.24-.6.36-1a13.35,13.35,0,0,0,.6-2.05,2.91,2.91,0,0,0,.24-1c.24-.72.36-1.45.6-2.05.12-.36.12-.6.24-1,.24-.72.36-1.57.6-2.29.12-.24.12-.48.24-.72.24-1,.48-2.05.72-3a140.29,140.29,0,0,0,3.26-24.86Q893.67,781.51,893.51,779.33ZM806.62,660.45c-.12.12-.36.12-.48.24H806C806.26,660.57,806.38,660.45,806.62,660.45Z" transform="translate(-132.98 -599.64)"/><path class="cls-10" d="M893.64,776.92a141.6,141.6,0,0,1-3.26,24.86A138.09,138.09,0,0,1,755.81,909.32h0A138,138,0,0,1,621.23,801.78,140.12,140.12,0,0,1,618,776.92a140.12,140.12,0,0,1,3.26-24.86,137.38,137.38,0,0,1,43.45-73.14L621.59,701.6a91.73,91.73,0,0,1,4.1-53.35,59.74,59.74,0,0,1,6-11.95c34.76-1.21,64.09,12.67,73.62,17.74a136.75,136.75,0,0,1,50.33-9.54h0A136.75,136.75,0,0,1,806,654.05c9.54-5.07,39-19.07,73.75-17.86,0,0,18.47,26.92,10.14,65.42L846.81,679a137.52,137.52,0,0,1,43.45,73.14A119.81,119.81,0,0,1,893.64,776.92Z" transform="translate(-132.98 -599.64)"/><path class="cls-9" d="M893.64,776.92a141.6,141.6,0,0,1-3.26,24.86A138.09,138.09,0,0,1,755.81,909.32h0V644.64h0a136.75,136.75,0,0,1,50.33,9.54c9.54-5.07,39-19.07,73.75-17.86,0,0,18.47,26.92,10.14,65.42l-43.09-22.57a137.52,137.52,0,0,1,43.45,73.14A126.08,126.08,0,0,1,893.64,776.92Z" transform="translate(-132.98 -599.64)"/><path class="cls-10" d="M755.81,802.75s-34.64-23.29,0-42.49Z" transform="translate(-132.98 -599.64)"/><path class="cls-10" d="M755.81,802.75s34.64-23.29,0-42.49Z" transform="translate(-132.98 -599.64)"/><path class="cls-4" d="M755.81,799.73s-34.64-23.29,0-42.49Z" transform="translate(-132.98 -599.64)"/><path class="cls-5" d="M755.81,799.73s34.64-23.29,0-42.49Z" transform="translate(-132.98 -599.64)"/><path class="cls-9" d="M713.68,809.87a93.9,93.9,0,0,1-36.75,74.66l-.06,0a138,138,0,0,1-55.76-82.8,141.09,141.09,0,0,1-3.1-21.67c-.06-1.06-.11-2.14-.16-3.2a140.29,140.29,0,0,1,3.26-24.86h0c.27-1.16.54-2.32.83-3.46s.65-2.5,1-3.74a136.36,136.36,0,0,1,11.44-28.15l.11,0c.42.06.83.13,1.26.22l.91.16a94.34,94.34,0,0,1,68,52.56q1.3,2.75,2.41,5.59a90.9,90.9,0,0,1,3.39,10.3q.81,3,1.41,6.12A93.58,93.58,0,0,1,713.68,809.87Z" transform="translate(-132.98 -599.64)"/><path class="cls-10" d="M797.93,809.87a93.94,93.94,0,0,0,36.81,74.71,138,138,0,0,0,55.76-82.8,140.12,140.12,0,0,0,3.26-24.86,140.12,140.12,0,0,0-3.26-24.86,137,137,0,0,0-13.28-35.36A94.38,94.38,0,0,0,797.93,809.87Z" transform="translate(-132.98 -599.64)"/><path class="cls-10" d="M755.74,724.33a68.52,68.52,0,0,0-68.39-65.21h-.1A68.51,68.51,0,0,0,618.79,724c0,.11,0,.22,0,.34v0c0,.42,0,.86,0,1.29q0,1,0,2c0,.52,0,1,0,1.56a.33.33,0,0,0,0,.11c0,.69,0,1.39.07,2.08a68.29,68.29,0,0,0,3.15,17.16l.07.21a68.56,68.56,0,0,0,133.79-21.11v0Q755.81,726,755.74,724.33Zm-68.48,54.88a51.65,51.65,0,0,1-51.66-51.66q0-1.65.11-3.26a51,51,0,0,1,3.36-15.36,51.66,51.66,0,0,1,99.74,15.32c.07,1.09.11,2.2.11,3.31a51.67,51.67,0,0,1-51.66,51.66Z" transform="translate(-132.98 -599.64)"/><path class="cls-10" d="M824.36,659.12a68.51,68.51,0,1,0,.1,0Zm0,120.09h0a52.5,52.5,0,0,0,20-4A53.43,53.43,0,0,1,824.36,779.21Zm0-103.32h0a51.71,51.71,0,0,1,23.54,5.67A51.71,51.71,0,0,0,824.36,675.9ZM870.23,704a51.71,51.71,0,0,1,5.67,23.54h0A51.33,51.33,0,0,0,870.23,704Z" transform="translate(-132.98 -599.64)"/><path class="cls-6" d="M675.91,727.55a30.29,30.29,0,0,0,53.23,19.79,21.39,21.39,0,0,1-8.81,1.93,21.73,21.73,0,0,1,0-43.45,21.39,21.39,0,0,1,8.81,1.93,30.29,30.29,0,0,0-53.23,19.79Z" transform="translate(-132.98 -599.64)"/><path class="cls-9" d="M705.36,654.05c-44.54-14.48-79.78-5.91-79.78-5.91a59.74,59.74,0,0,1,6-11.95C666.49,635.1,695.82,649,705.36,654.05Z" transform="translate(-132.98 -599.64)"/><ellipse class="cls-10" cx="608.46" cy="315.11" rx="9.78" ry="19.07"/><ellipse class="cls-10" cx="580.82" cy="315.11" rx="9.78" ry="19.07"/><path class="cls-10" d="M807.59,914.75c0,.69,0,1.38-.06,2-.52,9.58-4.67,17-9.72,17s-9.15-7.36-9.72-16.86c0-.72-.06-1.46-.06-2.21,0-.39,0-.77,0-1.15s0-1,.07-1.47c.65-9.29,4.74-16.45,9.68-16.45,3.84,0,7.16,4.32,8.76,10.61a33.46,33.46,0,0,1,1,7.31C807.59,914,807.59,914.37,807.59,914.75Z" transform="translate(-132.98 -599.64)"/><path class="cls-10" d="M779.83,914.75c0,.41,0,.81,0,1.21-.31,10-4.56,17.86-9.75,17.86-4.86,0-8.91-6.93-9.66-16-.06-.72-.1-1.45-.11-2.2,0-.28,0-.57,0-.86s0-.77,0-1.15c.3-10,4.55-17.92,9.75-17.92s9.45,7.92,9.75,17.92a1.87,1.87,0,0,1,0,.27C779.83,914.16,779.83,914.45,779.83,914.75Z" transform="translate(-132.98 -599.64)"/><path class="cls-10" d="M805.9,654.05c44.54-14.48,79.78-5.91,79.78-5.91a59.74,59.74,0,0,0-6-11.95C844.88,635.1,815.43,649,805.9,654.05Z" transform="translate(-132.98 -599.64)"/><ellipse class="cls-5" cx="664.83" cy="312.82" rx="9.78" ry="19.07"/><ellipse class="cls-5" cx="637.07" cy="312.82" rx="9.78" ry="19.07"/><path class="cls-10" d="M755.81,915.72s-27.4-1.74-51.19-9.79l51.19,7.54Z" transform="translate(-132.98 -599.64)"/><ellipse class="cls-4" cx="608.46" cy="312.82" rx="9.78" ry="19.07"/><ellipse class="cls-4" cx="580.82" cy="312.82" rx="9.78" ry="19.07"/><path class="cls-11" d="M753.37,639.3c-.47.44,19.49,16.41,21.27,17.66a125,125,0,0,0,26.72,14.56c9,3.43,18.64,5.62,28.3,5,8.19-.53,21-3.31,25.43-11.09a17,17,0,0,0,1.88-7.18c.48-6.54-1.3-12-3.49-18-3.24-8.87,1.75-17.3,1.28-26.19-.25-4.71-2.23-9.58-6.2-12.14-3.54-2.29-8-2.4-12.24-2.2C804.37,601.25,776.21,617.82,753.37,639.3Z" transform="translate(-132.98 -599.64)"/><path class="cls-11" d="M758.26,639.3v0c0,.79-19.52,16.42-21.28,17.64a124.2,124.2,0,0,1-26.73,14.55c-9,3.44-18.65,5.63-28.3,5-8.19-.53-21-3.31-25.43-11.1a17,17,0,0,1-1.88-7.17c-.48-6.54,1.3-12,3.49-18a15.14,15.14,0,0,0,.6-2.1c1.88-8.1-2.32-15.9-1.88-24.09.26-4.7,2.23-9.58,6.2-12.12,3.55-2.3,8-2.41,12.25-2.21C707.26,601.24,735.41,617.82,758.26,639.3Z" transform="translate(-132.98 -599.64)"/><path class="cls-12" d="M758.26,639.3v0c0,.79-19.52,16.42-21.28,17.64a124.2,124.2,0,0,1-26.73,14.55c-9,3.44-18.65,5.63-28.3,5-8.19-.53-21-3.31-25.43-11.1a17,17,0,0,1-1.88-7.17c-.48-6.54,1.3-12,3.49-18a15.14,15.14,0,0,0,.6-2.1C698.43,660.09,758.26,639.3,758.26,639.3Z" transform="translate(-132.98 -599.64)"/><path class="cls-12" d="M753.31,639.18v0c0,.79,19.52,16.42,21.28,17.64a124.2,124.2,0,0,0,26.73,14.55c9,3.44,18.65,5.63,28.3,5,8.19-.53,21-3.31,25.43-11.1a17,17,0,0,0,1.88-7.17c.48-6.54-1.3-12-3.49-18a15.14,15.14,0,0,1-.6-2.1C813.14,660,753.31,639.18,753.31,639.18Z" transform="translate(-132.98 -599.64)"/><path class="cls-11" d="M786.4,638c0,.2,0,.39,0,.57,0,.43,0,.86-.07,1.29a22.23,22.23,0,0,1-1.59,6.63,20.33,20.33,0,0,1-1.53,3.12c-5,8.46-15.18,14.26-27,14.26-15.63,0-28.49-10.19-30-23.25-.07-.64-.13-1.3-.14-2,0-.21,0-.43,0-.66,0-14.27,13.5-25.86,30.17-25.86S786.4,623.73,786.4,638Z" transform="translate(-132.98 -599.64)"/><path class="cls-12" d="M786.39,638.57c0,.43,0,.86-.07,1.29a22.23,22.23,0,0,1-1.59,6.63,20.33,20.33,0,0,1-1.53,3.12c-5,8.46-15.18,14.26-27,14.26-15.63,0-28.49-10.19-30-23.25-.07-.64-.13-1.3-.14-2A102.34,102.34,0,0,0,786.39,638.57Z" transform="translate(-132.98 -599.64)"/><path class="cls-4" d="M713.7,657.76a68.12,68.12,0,0,0-26.35-5.27h-.17a68.57,68.57,0,0,0-65.62,48.93c-.3,1-.57,1.94-.81,2.93A68.58,68.58,0,0,0,618.7,721q0,1.67.07,3.29v0a68.49,68.49,0,0,0,4.18,20.48l.07.18a68.56,68.56,0,0,0,132.72-20.69q.07-1.63.07-3.29v0A68.51,68.51,0,0,0,713.7,657.76Zm25.1,66.49a51.65,51.65,0,0,1-103.1,0q-.11-1.61-.11-3.26c0-1.39,0-2.75.16-4.1.08-1,.19-2.05.34-3.07A51.66,51.66,0,0,1,738.91,721C738.91,722.11,738.87,723.19,738.8,724.25Z" transform="translate(-132.98 -599.64)"/><circle class="cls-7" cx="554.27" cy="121.4" r="51.66"/><circle class="cls-7" cx="691.38" cy="121.4" r="51.66"/><path class="cls-5" d="M824.36,652.48a68.51,68.51,0,1,0,.1,0Zm0,120.21A51.66,51.66,0,1,1,876,721,51.66,51.66,0,0,1,824.36,772.69Z" transform="translate(-132.98 -599.64)"/><path class="cls-8" d="M720.2,742.76a21.39,21.39,0,0,0,8.81-1.93,30.29,30.29,0,1,1,0-39.59,21.39,21.39,0,0,0-8.81-1.93,21.73,21.73,0,1,0,0,43.45Z" transform="translate(-132.98 -599.64)"/><path class="cls-8" d="M835.71,721a30.29,30.29,0,0,1-53.23,19.79,21.39,21.39,0,0,0,8.81,1.93,21.73,21.73,0,1,0,0-43.45,21.39,21.39,0,0,0-8.81,1.93A30.29,30.29,0,0,1,835.71,721Z" transform="translate(-132.98 -599.64)"/></svg>