<svg id="Capa_1" data-name="Capa 1" xmlns="http://www.w3.org/2000/svg" viewBox="0 0 367.49 340.4"><defs><style>.cls-1{fill:#1d1d1b;}.cls-2{fill:#036830;}.cls-3{fill:#2f814c;}.cls-4{fill:#ffd833;}.cls-5{fill:#fff;}.cls-6{fill:#ffcf04;}.cls-7{fill:#1d1e1c;}</style></defs><title>Vista 2</title><path class="cls-1" d="M404.78,1377.67q-9.58,3.73-19.64-1.92-9.26-5.2-11.15-13.25t3.77-18.39l21.17-37.75,15.39,8.63-20.9,37.26q-5.05,9,3.15,13.61,7.83,4.39,13.81.59l22.9-40.83,15.44,8.66-32.31,57.61-14.48-8.12Z" transform="translate(-373.51 -1051.49)"/><path class="cls-1" d="M475.51,1308v16.24h11.29v12.94H475.51v33q0,3.66,1.4,5.25t5.37,1.59a28.13,28.13,0,0,0,5.19-.43v13.37a36.32,36.32,0,0,1-10.68,1.59q-18.56,0-18.92-18.74v-35.59h-9.65v-12.94h9.65V1308Z" transform="translate(-373.51 -1051.49)"/><path class="cls-1" d="M536.19,1383.53q-6.53,7.94-18.07,7.94-10.62,0-16.21-6.1t-5.71-17.89v-43.28h17.64v42.72q0,10.33,9.4,10.33,9,0,12.33-6.24v-46.81h17.7v66.05h-16.6Z" transform="translate(-373.51 -1051.49)"/><path class="cls-1" d="M587.72,1308v16.24H599v12.94H587.72v33q0,3.66,1.4,5.25t5.37,1.59a28.13,28.13,0,0,0,5.19-.43v13.37a36.32,36.32,0,0,1-10.68,1.59q-18.56,0-18.92-18.74v-35.59h-9.65v-12.94h9.65V1308Z" transform="translate(-373.51 -1051.49)"/><path class="cls-1" d="M604.26,1356.61a39.17,39.17,0,0,1,3.78-17.52,27.71,27.71,0,0,1,10.9-11.9,31.79,31.79,0,0,1,16.51-4.21q13.37,0,21.82,8.18t9.43,22.22l.12,4.52q0,15.2-8.49,24.39t-22.77,9.19q-14.28,0-22.8-9.16t-8.52-24.91Zm17.64,1.25q0,9.42,3.54,14.4a12.72,12.72,0,0,0,20.14.06q3.6-4.91,3.6-15.74,0-9.23-3.6-14.3a11.7,11.7,0,0,0-10.13-5.08,11.51,11.51,0,0,0-10,5Q621.9,1347.28,621.9,1357.86Z" transform="translate(-373.51 -1051.49)"/><path class="cls-1" d="M724.9,1391.46a46.3,46.3,0,0,0-1.79-6q-3.54-9.23-11-9.65l-40.78,15.66L665,1375.17l62.32-23.93,5.9,15.37-7.26,3.3q10.46,1.6,13.79,10.27a17.88,17.88,0,0,1,1.2,5.35Z" transform="translate(-373.51 -1051.49)"/><path class="cls-2" d="M660.32,1193.42s0,0,0,0a0,0,0,0,0,0,0,137.26,137.26,0,0,0-3-20.33c-.24-1.2-.6-2.39-.84-3.59.26-.8.5-1.6.73-2.4a66.46,66.46,0,0,0,2.5-18.4,29.14,29.14,0,0,0-.12-3.23c0-1.08.12-2.15.12-3.23a68.11,68.11,0,0,0-2.75-19.25,93.39,93.39,0,0,0,2.14-19.79c0-2.25-.08-4.44-.24-6.55v0c-1.7-23.51-11.94-38.44-11.94-38.44a33.49,33.49,0,0,1-3.47-.12c-33-.24-60.5,12.79-69.83,17.7a137.16,137.16,0,0,0-49.74-9.33h-.19a135.14,135.14,0,0,0-41.53,6.54q-4.11,1.31-8.14,2.91a150.25,150.25,0,0,0-18.13-8.13c-13.88-5.21-33.38-10.35-55-9.68a63.9,63.9,0,0,0-6,11.84,90.4,90.4,0,0,0-6.1,28.11s0,0,0,0a0,0,0,0,0,0,0s0,0,0,0,0,0,0,0a.05.05,0,0,0,0,.06,88.68,88.68,0,0,0,1.32,20.95c.2,1.21.45,2.42.72,3.61a67,67,0,0,0-2.4,12.54q-.09.86-.14,1.72c0,.59-.08,1.18-.12,1.78a.13.13,0,0,1,0,.06v.1l0,1.08v.2q0,1,0,2c0,.59,0,1.17,0,1.76,0,.41,0,.81.1,1.23a6.5,6.5,0,0,1,0,.68.33.33,0,0,0,0,.11l.86,7.65a.37.37,0,0,0,0,.12,68.23,68.23,0,0,0,2.24,9.16c-.29,1.14-.56,2.28-.83,3.43h0l.07.23h0c.24.87.49,1.76.77,2.63-.24,1.2-.6,2.39-.84,3.47a139,139,0,0,0-3,20.46v.07l-.07.87a0,0,0,0,1,0,0,0,0,0,0,1,0,0c-.06,1.05-.11,2.12-.16,3.17a140.09,140.09,0,0,0,3.23,24.63,137.38,137.38,0,0,0,55.24,82,139.65,139.65,0,0,0,14.06,8.57,138.12,138.12,0,0,0,13.43,6.24l.47.18,1.1.43c-1.08,2.65,47.71,9.09,49.14,9.09s3,0,4.44-.11a2.17,2.17,0,0,1,.18.67s-.07,1-.07,1.51c.74,9,4.75,15.87,9.57,15.87,5.14,0,9.35-7.81,9.66-17.7q0-.41-.07-.83c0-.41-.08-.8-.14-1.21l.22,0h0c2.79-.44,5.46-1.06,8.14-1.71h.1l.62-.16a34.12,34.12,0,0,0-.57,3.81c0,.38-.06.75-.08,1.12.56,9.41,4.66,16.7,9.63,16.7s9.11-7.38,9.63-16.87q0-.56-.07-1.11a30.77,30.77,0,0,0-2.14-8.8l1.27-.49.45-.18A134.93,134.93,0,0,0,602,1304.21h.12c.84-.6,1.67-1.2,2.39-1.67a.11.11,0,0,0,.12-.12A153.6,153.6,0,0,0,619,1290.34l.12-.12c.72-.6,1.32-1.32,2-2l.24-.24c.6-.6,1.2-1.32,1.91-1.91.12-.12.24-.24.24-.36.6-.6,1.2-1.32,1.79-2,.12-.12.12-.24.24-.24.6-.72,1.2-1.43,1.91-2.15l.12-.12a134.45,134.45,0,0,0,9.45-12.32c.12-.12.12-.24.24-.36a10.33,10.33,0,0,0,1-1.43c.12-.24.36-.48.48-.72a1.65,1.65,0,0,1,.36-.48c.48-.72.84-1.43,1.32-2.15.12-.24.24-.36.36-.6.48-.72.84-1.43,1.32-2.15.12-.24.24-.36.36-.6a18.94,18.94,0,0,0,1.2-2.15c.12-.12.12-.36.24-.48.48-.84.84-1.55,1.32-2.39a.42.42,0,0,1,.12-.24c1.43-2.75,2.75-5.62,4.07-8.49,0-.12.12-.12.12-.24l1.08-2.51c.12-.24.12-.48.24-.6.24-.72.6-1.43.84-2.15.12-.24.24-.6.36-.84.24-.72.48-1.43.72-2,.12-.36.24-.6.36-1,.24-.72.48-1.32.72-2,.12-.36.24-.6.36-1a13.22,13.22,0,0,0,.6-2,2.89,2.89,0,0,0,.24-1c.24-.72.36-1.43.6-2,.12-.36.12-.6.24-1,.24-.72.36-1.55.6-2.27.12-.24.12-.48.24-.72.24-1,.48-2,.72-3a139,139,0,0,0,3.23-24.63C660.51,1196.25,660.43,1194.84,660.32,1193.42Zm-86.67-117.58h.12c.12-.12.36-.12.48-.24C574,1075.6,573.88,1075.72,573.65,1075.84Z" transform="translate(-373.51 -1051.49)"/><path class="cls-2" d="M660.45,1191a140.27,140.27,0,0,1-3.23,24.63,136.8,136.8,0,0,1-133.32,106.53h0a136.74,136.74,0,0,1-133.32-106.53,95.58,95.58,0,0,1,0-49.26,136.09,136.09,0,0,1,43-72.46l-42.68,22.48a90.87,90.87,0,0,1,4.07-52.85,59.18,59.18,0,0,1,6-11.84c34.43-1.2,63.49,12.55,72.94,17.58a135.47,135.47,0,0,1,49.86-9.45h0a135.47,135.47,0,0,1,49.86,9.45c9.45-5,38.62-18.89,73.05-17.7,0,0,18.29,26.66,10,64.8L614.06,1094a136.23,136.23,0,0,1,43,72.46A118.69,118.69,0,0,1,660.45,1191Z" transform="translate(-373.51 -1051.49)"/><path class="cls-3" d="M660.45,1191a140.27,140.27,0,0,1-3.23,24.63,136.8,136.8,0,0,1-133.32,106.53h0V1059.93h0a135.47,135.47,0,0,1,49.86,9.45c9.45-5,38.62-18.89,73.05-17.7,0,0,18.29,26.66,10,64.8l-42.68-22.36a136.23,136.23,0,0,1,43,72.46A124.9,124.9,0,0,1,660.45,1191Z" transform="translate(-373.51 -1051.49)"/><path class="cls-3" d="M482.18,1223.62a93,93,0,0,1-36.41,74l-.06,0a136.71,136.71,0,0,1-55.24-82,139.77,139.77,0,0,1-3.07-21.46,0,0,0,0,0,0,0,0,0,0,0,0,0,0c-.06-1-.11-2.07-.16-3.11a139,139,0,0,1,3.23-24.63h0c.26-1.15.54-2.3.83-3.43s.65-2.49,1-3.72a135.25,135.25,0,0,1,11.33-27.87l.11,0c.42.06.83.13,1.24.22l.9.16a93.46,93.46,0,0,1,67.4,52.07,0,0,0,0,1,0,0c.85,1.81,1.65,3.65,2.38,5.52a90.08,90.08,0,0,1,3.36,10.2q.81,3,1.4,6.06A92.69,92.69,0,0,1,482.18,1223.62Z" transform="translate(-373.51 -1051.49)"/><path class="cls-2" d="M565.63,1223.62a93.06,93.06,0,0,0,36.47,74,136.71,136.71,0,0,0,55.24-82,95.58,95.58,0,0,0,0-49.26,135.67,135.67,0,0,0-13.15-35A93.5,93.5,0,0,0,565.63,1223.62Z" transform="translate(-373.51 -1051.49)"/><path class="cls-2" d="M523.83,1138.88a67.88,67.88,0,0,0-67.75-64.6H456a67.9,67.9,0,0,0-62.17,40.58,67,67,0,0,0-5.39,20.39q-.09.86-.14,1.72c0,.59-.08,1.18-.12,1.78a.54.54,0,0,1,0,.13v0l0,1.08v.2q0,1,0,2c0,.59,0,1.17,0,1.76s0,1.28.07,1.91a.33.33,0,0,0,0,.11,66.87,66.87,0,0,0,.86,7.65.37.37,0,0,0,0,.12,68.23,68.23,0,0,0,2.24,9.16l.07.2a67.92,67.92,0,0,0,132.54-20.91v0Q523.91,1140.5,523.83,1138.88ZM456,1193.25a51.17,51.17,0,0,1-51.17-51.17q0-1.63.11-3.23a50.23,50.23,0,0,1,.94-7.14,49.71,49.71,0,0,1,2.39-8.09,51.17,51.17,0,0,1,98.8,15.18s0,0,0,0q.11,1.6.11,3.23A51.18,51.18,0,0,1,456,1193.25Z" transform="translate(-373.51 -1051.49)"/><path class="cls-2" d="M591.82,1074.28a67.87,67.87,0,1,0,.1,0Zm0,119h0a52,52,0,0,0,19.85-3.95A52.93,52.93,0,0,1,591.82,1193.25Zm0-102.35h0a51.22,51.22,0,0,1,23.32,5.62A51.22,51.22,0,0,0,591.82,1090.9Zm45.43,27.86a51.22,51.22,0,0,1,5.62,23.32h0A50.85,50.85,0,0,0,637.25,1118.76Z" transform="translate(-373.51 -1051.49)"/><path class="cls-2" d="M444.75,1142.07a30,30,0,0,0,52.73,19.61,21.19,21.19,0,0,1-8.73,1.91,21.52,21.52,0,0,1,0-43,21.19,21.19,0,0,1,8.73,1.91,30,30,0,0,0-52.73,19.61Z" transform="translate(-373.51 -1051.49)"/><path class="cls-4" d="M482.19,1072.93a67.48,67.48,0,0,0-26.1-5.23h-.17a67.93,67.93,0,0,0-65,48.47c-.3,1-.56,1.94-.8,2.92a67.77,67.77,0,0,0-2,16.52q0,1.61.07,3.19v.1a67.48,67.48,0,0,0,4.14,20.28.62.62,0,0,0,.07.19,67.92,67.92,0,0,0,131.47-20.49q.07-1.61.07-3.26v0A67.87,67.87,0,0,0,482.19,1072.93Zm24.91,65.32a4.12,4.12,0,0,1,0,.55s0,0,0,0c0,.76-.12,1.52-.2,2.27,0,.13,0,.27,0,.4q-.11,1-.25,1.91l-.06.36c-.11.71-.24,1.41-.38,2.1v.06a51.19,51.19,0,0,1-47.49,40.77c-.87,0-1.75.07-2.63.07a51.17,51.17,0,0,1-51.07-47.95q-.11-1.6-.11-3.23c0-1.38,0-2.73.16-4.07.08-1,.19-2,.33-3a51.18,51.18,0,0,1,101.86,7.1C507.17,1136.5,507.14,1137.38,507.1,1138.25Z" transform="translate(-373.51 -1051.49)"/><circle class="cls-5" cx="82.48" cy="84.13" r="51.17"/><circle class="cls-5" cx="218.31" cy="84.13" r="51.17"/><path class="cls-6" d="M591.82,1067.71a67.87,67.87,0,1,0,.1,0Zm0,119.09A51.17,51.17,0,1,1,643,1135.62,51.17,51.17,0,0,1,591.82,1186.79Z" transform="translate(-373.51 -1051.49)"/><path class="cls-7" d="M488.63,1157.14a21.19,21.19,0,0,0,8.73-1.91,30,30,0,1,1,0-39.22,21.19,21.19,0,0,0-8.73-1.91,21.52,21.52,0,1,0,0,43Z" transform="translate(-373.51 -1051.49)"/><path class="cls-7" d="M603.06,1135.62a30,30,0,0,1-52.73,19.61,21.19,21.19,0,0,0,8.73,1.91,21.52,21.52,0,0,0,0-43,21.19,21.19,0,0,0-8.73,1.91,30,30,0,0,1,52.73,19.61Z" transform="translate(-373.51 -1051.49)"/><path class="cls-3" d="M473.93,1069.26c-44.12-14.35-79-5.86-79-5.86a59.19,59.19,0,0,1,6-11.84C435.43,1050.49,464.48,1064.24,473.93,1069.26Z" transform="translate(-373.51 -1051.49)"/><ellipse class="cls-2" cx="136.16" cy="276.03" rx="9.68" ry="18.89"/><ellipse class="cls-2" cx="108.78" cy="276.03" rx="9.68" ry="18.89"/><path class="cls-2" d="M575.2,1327.52c0,.68,0,1.36-.06,2-.51,9.49-4.63,16.87-9.63,16.87s-9.06-7.29-9.63-16.7c0-.72-.06-1.45-.06-2.19,0-.38,0-.77,0-1.14s0-1,.07-1.46c.65-9.21,4.7-16.3,9.59-16.3,3.8,0,7.09,4.28,8.68,10.51a33.14,33.14,0,0,1,1,7.25C575.2,1326.76,575.2,1327.14,575.2,1327.52Z" transform="translate(-373.51 -1051.49)"/><path class="cls-2" d="M547.7,1327.52c0,.41,0,.8,0,1.2-.31,9.89-4.52,17.7-9.66,17.7-4.82,0-8.82-6.86-9.57-15.87-.06-.72-.1-1.43-.11-2.18,0-.28,0-.56,0-.85s0-.77,0-1.14c.3-9.91,4.51-17.76,9.66-17.76s9.36,7.84,9.66,17.76a1.85,1.85,0,0,1,0,.26C547.7,1326.94,547.7,1327.22,547.7,1327.52Z" transform="translate(-373.51 -1051.49)"/><path class="cls-2" d="M573.53,1069.26c44.12-14.35,79-5.86,79-5.86a59.19,59.19,0,0,0-6-11.84C612.15,1050.49,583,1064.24,573.53,1069.26Z" transform="translate(-373.51 -1051.49)"/><ellipse class="cls-4" cx="136.16" cy="273.76" rx="9.68" ry="18.89"/><ellipse class="cls-4" cx="108.78" cy="273.76" rx="9.68" ry="18.89"/><ellipse class="cls-6" cx="192" cy="273.76" rx="9.68" ry="18.89"/><ellipse class="cls-6" cx="164.5" cy="273.76" rx="9.68" ry="18.89"/><path class="cls-1" d="M545.24,1271l-11.92-24.48L466.75,1279l-8-16.46,66.57-32.43-11.76-24.15,13.34-6.5,31.71,65.09Z" transform="translate(-373.51 -1051.49)"/><path class="cls-2" d="M523.91,1216.56s-34.32-23.08,0-42.09Z" transform="translate(-373.51 -1051.49)"/><path class="cls-2" d="M523.91,1216.56s34.32-23.08,0-42.09Z" transform="translate(-373.51 -1051.49)"/><path class="cls-4" d="M523.91,1213.58s-34.32-23.08,0-42.09Z" transform="translate(-373.51 -1051.49)"/><path class="cls-6" d="M523.91,1213.58s34.32-23.08,0-42.09Z" transform="translate(-373.51 -1051.49)"/></svg>